<?xml version="1.0" encoding="UTF-8"?><!DOCTYPE svg PUBLIC '-//W3C//DTD SVG 20010904//EN' 'http://www.w3.org/TR/2001/REC-SVG-20010904/DTD/svg10.dtd'><svg width="740pt" height="722pt" version="1.0" viewBox="0 0 740 722" xmlns="http://www.w3.org/2000/svg"><g transform="translate(0 722) scale(.1 -.1)" fill="#9b1e1e"><path d="m3415 6795c-932-114-1724-577-2272-1330-541-743-733-1731-512-2635 297-1219 1289-2166 2517-2404 212-41 387-57 627-57 307 0 522 27 810 101 730 186 1383 639 1831 1270 266 375 462 848 538 1300 70 413 59 859-30 1254-106 472-330 934-640 1321-113 141-338 366-479 479-180 144-392 279-600 381-333 164-602 249-970 307-168 26-650 34-820 13zm800-153c347-55 650-151 945-300 802-406 1387-1133 1605-1996 72-284 89-433 90-756 0-322-18-470-90-756-138-544-406-1015-810-1419-480-482-1054-769-1755-880-163-26-577-32-760-11-878 102-1655 550-2165 1251-896 1229-765 2914 310 3990 471 472 1091 784 1740 875 202 28 195 28 490 25 211-2 298-7 400-23z"/><path d="m3233 6150c-32-13-29-26 15-54 71-46 82-65 112-205 16-77 40-157 59-195 17-36 31-67 31-69 0-13-135-62-223-80-136-27-158-45-92-73 54-22 110-17 183 17 37 17 78 33 92 36 23 4 27 0 37-31s9-38-5-45c-20-10-152-53-234-75-31-9-59-20-63-25-11-19 8-41 51-57 36-14 49-26 72-68 29-56 91-96 145-96 33 0 166 59 185 83 7 9 12 28 10 44-4 40-40 41-130 4-40-17-87-33-105-37-29-6-33-4-47 31-9 21-16 41-16 46s55 26 122 47c135 43 158 61 119 93-21 17-23 24-16 67 13 83 12 86-22 101-35 16-36 27-8 97 12 30 17 32 81 38 98 10 104 13 104 46 0 61-86 78-147 31-14-12-31-21-37-21-7 0-23 59-40 148-16 81-34 152-40 158-32 31-156 59-193 44z"/><path d="m4296 6121c-4-6 11-32 34-59l42-47-6-75c-4-41-9-94-12-117-6-42-7-43-45-43-45 0-45 2-29 124 10 82 2 105-50 141-42 29-104 43-114 26-4-6 7-30 23-54 17-23 31-53 31-67s-1-130-3-258c-2-198-1-230 11-215 31 41 61 113 73 173 6 36 13 67 15 68 1 2 12-6 23-17 12-12 28-21 36-21 12 0 15-18 15-100 0-55-3-100-7-100-5 0-17 7-27 15-22 17-72 20-81 6-3-5 2-26 12-45 19-42 16-51-51-153-72-110-106-144-151-153l-40-8 48-1c60-1 122 29 199 99l58 51 29-48c50-81 61-93 85-93 31 0 50 39 42 83-8 41-28 60-78 76-49 16-54 26-29 57 24 30 26 56 10 82-10 15-5 27 25 66 48 64 63 121 85 332 21 202 20 204-49 250-43 29-113 43-124 25z"/><path d="m3807 6043c-8-14 10-49 42-80 33-34 85-48 134-37 85 18 91 94 7 94-19 1-64 7-100 15-77 17-78 17-83 8z"/><path d="m3119 6e3c-14-4-47-24-73-43-48-37-101-57-206-78-76-15-93-32-51-54 44-22 115-23 139-2 33 30 52 22 52-22 0-85-132-285-209-319-26-11-31-17-19-19 24-6 101 30 150 68 22 18 63 60 90 93 28 34 54 62 58 64s43-20 86-48c44-27 89-50 101-50 33 0 46 32 30 72-25 58-51 73-126 73-36 0-65 3-64 5 0 3 7 17 14 32 10 24 10 31-5 47-10 11-31 25-47 32-40 16-29 24 60 43 93 21 111 31 111 60 0 39-43 61-91 46z"/><path d="m4e3 5908c-25-5-98-7-162-4-66 3-120 1-123-4-8-13 14-45 44-63 22-13 53-14 191-9 163 7 165 7 168 30 4 29-24 62-52 61-12-1-41-5-66-11z"/><path d="m3895 5811c-77-19-115-67-115-145 0-43 4-53 38-86 62-62 147-76 217-35 46 26 75 74 75 122 0 86-120 166-215 144zm100-106c14-13 25-31 25-40 0-26-38-55-72-55-37 1-59 14-77 48-33 61 71 101 124 47z"/><path d="m5293 5793c3-10 15-44 27-75l22-57-96-242-30 7c-17 4-50 15-74 25-24 11-49 19-56 19-9 0-11 15-8 54 2 30-1 70-8 91-45 137-235 197-340 108-130-109-64-325 110-362 80-17 146 3 193 59 31 36 33 37 41 7 3-13 15-36 27-50 17-22 29-27 65-27 24 0 44-4 44-8 0-5-18-56-40-113-21-58-53-155-69-217-17-61-40-126-51-144-35-59-21-55 39 10 32 35 77 96 100 136 52 92 274 614 273 645 0 30-50 100-92 129-41 27-85 30-77 5zm-372-138c66-34 90-125 45-170-68-68-194-26-212 70-8 46 2 70 39 94 38 25 87 27 128 6z"/><path d="m2325 5763c-27-26-14-93 48-250 30-76 64-168 76-205 13-38 27-68 32-68 6 0 8 8 5 18-10 35-36 190-46 282-14 117-35 195-60 220-24 24-34 25-55 3z"/><path d="m1780 5603c-29-11-70-45-70-57 0-8 19-16 52-19 66-8 86-23 173-129 39-47 110-127 158-177l88-91-6 154 59 36c70 42 86 62 70 87-35 56-93 38-156-48l-18-24-35 40c-19 22-67 84-107 137l-73 98-60-1c-33 0-67-3-75-6z"/><path d="m3951 5501c-9-6-11-21-6-54 8-55-10-91-89-174-40-43-55-53-82-53-18 0-36-4-39-10-9-15 64-12 122 5 27 8 68 28 91 45 23 16 46 30 52 30 5 0 21-18 35-40 30-48 69-55 86-16 19 40 4 72-42 90l-40 16 20 26c17 21 18 30 10 48-28 53-94 102-118 87z"/><path d="m1572 5326c-30-24-70-52-89-62-20-11-38-24-40-31-6-17 72-36 119-28 71 12 149 113 117 151-19 24-52 15-107-30z"/><path d="m1724 5283c-36-64-86-115-164-171-85-60-95-74-63-86 9-4 37-4 62 0 38 5 54 15 88 52 23 25 46 42 50 38 11-11 16-156 8-232-5-53-13-72-37-100-33-38-25-45 15-14 36 29 92 145 108 225 7 37 19 69 26 72 8 3 42-2 78-11 35-9 70-13 79-10 39 15 23 76-27 100-32 15-37 15-82-5-51-22-66-26-64-13 5 33-3 42-38 42h-36l62 59c57 52 62 61 52 80-9 16-21 21-51 21-36 0-41-3-66-47z"/><path d="m5834 5201c-23-10-54-36-70-57-25-32-29-46-29-103 0-85 32-152 96-200l46-34-12-52c-15-64-79-175-100-175-15 0-165 114-165 125 0 7 18 25 40 40 53 37 58 62 27 128-26 52-59 83-77 72-6-4-10-34-10-68 0-37-8-78-18-101l-18-39-89 76c-50 41-108 94-130 116-60 63-82 52-61-30 16-61 46-110 81-132 17-10 69-42 118-70 123-73 248-168 348-264 60-58 93-83 111-83 85 0 50 128-46 164-25 10-46 22-46 27 0 4 12 15 28 23 15 8 47 32 72 54l44 39-13 44c-7 24-22 56-32 70l-19 27 59 4c72 5 119 37 150 101 86 178-106 379-285 298zm157-95c82-56 93-175 20-206-36-15-92-8-128 15-73 49-86 178-20 205 41 16 91 11 128-14z"/><path d="m2168 5103c-8-10-21-29-30-43s-39-51-68-84c-56-64-55-82 4-71 28 6 48 21 83 62l46 54 53-58c29-32 53-63 54-69 0-15-109-134-124-134-6 0-41 29-76 65-70 70-91 77-171 55-78-22-73-58 11-83 29-9 80-39 132-80 101-79 122-85 126-40 3 27 10 36 45 52 46 21 177 140 177 160 0 7-14 18-30 24-22 8-33 21-40 47-5 19-19 50-30 68s-20 39-20 47c0 41-112 63-142 28z"/><path d="m2496 5094c-21-21-20-57 2-77 24-22 45-21 65 1 23 26 21 58-5 76-28 20-43 20-62 0z"/><path d="m2220 4504c-14-2-56-9-95-15-354-57-728-328-889-645-88-174-120-307-120-504 0-156 18-260 71-424 30-95 34-114 24-145-31-107-18-243 36-348 34-68 117-147 190-180 45-21 74-27 133-27 41-1 84 1 94 4 15 4 25-6 45-45 121-231 377-427 651-499 135-35 184-39 272-22 264 51 529 263 621 496 40 104 46 163 51 566 5 344 2 434-19 515-6 25-3 27 72 54 102 36 227 95 283 133 24 17 45 30 46 29s-4-28-13-61c-14-56-10-131 11-186 4-11-14-26-62-53-136-76-167-120-168-237 0-50-8-113-18-152-25-89-17-122 46-200 28-34 74-113 103-173 41-87 62-119 99-152 58-51 133-81 241-95l80-11 59-80c75-100 178-183 310-247 112-55 270-100 350-100 102 0 289 85 451 204 106 78 191 94 281 52 99-46 172-46 241 1 35 24 46 26 131 24 111-2 161 10 207 50 56 50 65 109 39 272l-6 37h71c93 0 137 18 156 64 19 45 19 70 0 134-29 97-150 193-328 260-51 19-93 35-95 37s8 26 23 54c32 64 73 216 81 301 6 60 1 95-31 205-5 18 1 22 55 32 82 16 145 54 172 106 31 58 30 167-2 257-44 127-129 287-183 346-111 122-250 139-372 45-42-31-61-58-133-180-16-27-95 31-161 118-102 133-137 155-283 171-74 8-109 18-168 47-66 33-86 38-165 41-195 8-376-61-536-206-39-34-100-77-137-96-90-46-146-88-181-136-31-43-97-233-109-315l-8-50-18 38c-37 75-171 159-334 207-57 18-76 28-87 49-27 54-140 197-214 274-174 180-368 296-570 341-74 17-243 29-291 20zm205-220c203-40 397-113 557-210 57-35 152-140 200-222l17-29-87-33c-48-18-147-59-221-91-74-33-138-59-142-59s-9 10-13 23c-10 42-135 250-205 341-38 50-119 140-180 199-61 60-111 110-111 112 0 5 23 1 185-31zm3408-158c72-30 166-173 231-354 30-84 34-166 11-199-20-29-102-53-180-53-59 0-62 2-102 43-22 23-48 56-57 74l-16 31 49 36c52 39 122 110 141 145 9 18 8 27-5 47-26 41-54 30-137-51-42-41-80-75-85-75-4 0-19 19-32 43-13 23-37 59-53 79l-29 37 19 43c32 70 77 123 123 146 51 25 77 27 122 8zm-4265-63c-99-183-182-451-209-667-11-94-8-300 7-407 6-44 5-46-30-67l-35-21-26 81c-43 137-58 247-52 398 7 201 54 347 162 511 49 72 194 233 203 224 3-3-6-26-20-52zm378-106c91-164 263-539 276-600 2-9-45-49-117-102-66-48-149-112-183-143-49-42-66-52-72-42-24 38-60 331-60 480 0 193 54 551 80 535 5-3 39-60 76-128zm1447-251c104-36 196-90 223-131 16-24 16-27-2-46-50-55-398-195-584-235-124-26-316-16-504 28-73 17-86 22-75 33 64 61 753 380 829 384 8 0 59-14 113-33zm-853-521c30-13 93-40 140-61 74-33 95-38 160-38 63-1 84 4 127 26 28 15 54 32 57 37 11 18 95 43 120 37 14-3 32-19 39-34 15-28 28-117 19-126-2-3-23 4-45 16-23 11-70 23-104 26-56 4-70 1-128-27-76-38-107-72-103-115 2-23 10-33 30-40 23-8 32-5 64 24 79 69 137 74 229 19l50-30-1-302c0-299 0-303-26-374-34-95-70-156-132-221-137-145-346-252-492-252-77 0-237 45-339 95-172 85-331 236-409 390-44 86-66 101-133 90-83-13-138-8-189 18-108 55-165 149-172 284-4 70-1 88 18 127 52 108 193 137 281 58 17-15 47-58 67-96 53-100 65-101 153-18 39 37 108 119 152 182 217 304 370 387 567 305zm2661 25c24-13 46-55 59-115 9-40 7-61-10-129-25-93-21-132 16-167 22-21 36-24 108-26 95-1 138-18 161-63 44-86-7-181-127-234-66-29-72-37-69-90 2-57-14-136-41-192-62-133-318-323-511-379-52-15-64-15-130-1-305 63-548 259-622 503-13 42-52 309-85 576-14 113-10 120 74 111 81-8 160 21 224 82 32 31 54 44 74 44 33 0 92-28 134-63 56-47 94-60 174-59 127 0 286 55 393 137 48 37 121 74 145 75 7 0 22-5 33-10zm-1339-456c28-179 25-187-37-133-60 53-85 127-64 187 11 31 53 64 74 58 6-1 18-52 27-112z"/><path d="m2255 2967c-68-23-126-57-176-104-56-53-63-83-23-109 24-16 26-16 52 4 127 100 205 130 289 112 37-9 50-8 69 5 32 21 31 60-2 81-33 22-155 28-209 11z"/><path d="m2951 2857c-44-14-121-87-121-115 0-26 25-52 52-52 11 0 38 16 59 35 42 37 78 44 124 23 38-17 75 3 75 40 0 63-98 98-189 69z"/><path d="m2330 2773c-59-21-170-130-170-166 0-30 24-57 51-57 19 0 25 5 83 69 15 17 42 39 60 48 36 19 104 20 136 3 46-24 95 17 77 64-18 46-157 68-237 39z"/><path d="m2682 2778c-21-21-13-56 38-165 28-58 50-115 50-125 0-14-15-26-50-41-36-15-52-28-57-46-10-39 9-56 61-55 60 0 124 44 145 98 19 50 9 89-62 232-48 99-56 109-83 112-16 2-35-3-42-10z"/><path d="m1423 2669c-26-9-38-42-24-67 6-10 30-27 55-36 57-22 91-62 100-115 8-53 42-73 81-47 28 18 32 47 14 109-24 89-158 181-226 156z"/><path d="m2761 2309c-66-19-221-43-349-55-80-7-102-21-102-62 0-44 45-126 89-164 52-44 115-63 206-62 84 1 145 25 200 79 66 66 113 212 86 264-14 26-42 26-130 0zm-3-151c-32-58-86-88-161-88-32 0-72 6-90 14-34 14-74 52-65 62 3 3 56 12 117 20s127 18 148 23c75 18 77 16 51-31z"/><path d="m4225 2937c-58-19-86-35-122-70-37-35-42-66-15-90s47-21 85 13c60 52 126 64 207 35 29-10 47-12 60-5 24 13 34 44 21 68-23 44-163 72-236 49z"/><path d="m4845 2933c-76-23-107-49-103-86 4-42 29-55 70-38 109 45 142 46 266 9 53-15 77-3 77 38 0 73-178 118-310 77z"/><path d="m4295 2731c-51-13-114-50-131-76-15-23-15-27 0-50 9-14 25-25 36-25 10 0 40 11 66 25 52 27 125 33 169 13 31-14 32-39 8-156-15-74-16-86-3-109 35-62 122-87 219-63 56 13 77 36 67 76-8 30-39 38-97 25-25-6-55-7-68-4-20 5-22 10-17 37 16 74 25 184 18 216-6 30-15 39-62 62-59 30-153 43-205 29z"/><path d="m4824 2710c-28-11-61-31-74-45-20-21-22-30-14-53 13-37 44-39 117-7 71 32 134 31 209-5 52-26 93-22 103 10 11 36-5 59-62 87-77 37-203 43-279 13z"/><path d="m4630 2224c-169-19-174-21-168-85 9-87 86-158 197-179 76-14 139 2 195 51 73 64 119 182 84 217-16 16-145 14-308-4zm178-114c-22-34-70-53-121-48-47 6-104 34-92 46 8 8 93 19 168 21 54 1 57 0 45-19z"/><path d="m2722 1510c-43-40-75-47-134-25-27 9-51 15-54 12s4-23 15-46c12-22 21-50 21-61 0-27-22-70-49-94-35-31-26-38 39-31 72 8 99-5 130-65 11-22 24-40 29-40 12 0 21 25 21 56 0 51 27 82 85 99 30 9 55 20 55 25s-15 17-32 26c-65 32-78 52-78 116 0 32-4 58-9 58-4 0-22-13-39-30z"/><path d="m4650 1400c0-63-19-93-71-114-48-20-46-37 6-51 43-13 85-56 85-88 0-33 11-67 21-67 5 0 20 18 34 40 35 55 62 66 126 52 28-7 55-9 60-6s-6 24-26 47c-41 48-45 88-14 148 11 23 18 43 15 46s-27-3-54-12c-60-22-95-15-131 26-38 43-51 38-51-21z"/><path d="m3185 1331c-35-52-71-67-127-53-24 6-46 8-51 3-4-4 6-25 23-46 37-46 39-90 8-145-28-47-19-59 27-37 62 29 102 23 144-23 49-54 64-53 55 5-10 67 8 101 69 132 48 24 50 26 32 39-10 8-29 14-41 14-39 0-82 46-90 96-3 24-10 47-15 49-4 3-20-12-34-34z"/><path d="m4177 1313c-4-3-7-22-7-40 0-47-41-87-98-96-54-9-54-28-1-52 54-25 73-62 64-126-6-41-4-49 9-49 8 0 25 13 37 30 35 47 77 56 139 29 28-12 54-19 58-15s-3 25-16 46c-31 54-29 98 8 140 43 52 40 62-19 54-71-9-97 0-126 46-25 39-35 46-48 33z"/><path d="m3674 1254c-21-55-46-74-99-74-70 0-76-13-26-59 42-39 43-42 38-88-3-26-9-58-12-70-10-31 12-30 55 2 46 34 86 32 138-6 24-17 46-29 49-25 4 3 1 29-6 56-17 66-9 92 39 130 22 17 40 35 40 40 0 4-25 10-55 12-64 5-88 23-111 84-9 24-20 44-25 44-4 0-15-20-25-46z"/></g></svg>